<svg viewBox="0 0 200 230" fill="none" xmlns="http://www.w3.org/2000/svg">
  <defs>
    <clipPath id="hex">
      <polygon points="100,5 190,57 190,163 100,215 10,163 10,57"/>
    </clipPath>
    <clipPath id="cl">
      <polygon points="13,65 100,115 100,215 13,165"/>
    </clipPath>
    <clipPath id="cr">
      <polygon points="100,115 187,65 187,165 100,215"/>
    </clipPath>
    <pattern id="pl" x="0" y="0" width="13" height="13" patternUnits="userSpaceOnUse"
             patternTransform="rotate(-30)">
      <line x1="6.5" y1="0" x2="6.5" y2="13" stroke="#1D9E75" stroke-width="1.2" stroke-opacity="0.42"/>
    </pattern>
    <pattern id="pr" x="0" y="0" width="13" height="13" patternUnits="userSpaceOnUse">
      <line x1="6.5" y1="0" x2="6.5" y2="13" stroke="#1D9E75" stroke-width="1.2" stroke-opacity="0.42"/>
    </pattern>
  </defs>

  <g clip-path="url(#hex)">
    <polygon points="100,5 190,57 190,163 100,215 10,163 10,57" fill="#E8F5EF"/>

    <polygon points="13,65 100,115 100,215 13,165" fill="#D2EBE2"/>
    <rect x="0" y="0" width="200" height="230" fill="url(#pl)" clip-path="url(#cl)"/>

    <polygon points="100,115 187,65 187,165 100,215" fill="#C0E3D8"/>
    <rect x="0" y="0" width="200" height="230" fill="url(#pr)" clip-path="url(#cr)"/>

    <line x1="13" y1="65" x2="100" y2="115" stroke="#8EC4B4" stroke-width="0.8"/>
    <line x1="100" y1="115" x2="187" y2="65" stroke="#8EC4B4" stroke-width="0.8"/>
    <line x1="100" y1="115" x2="100" y2="215" stroke="#8EC4B4" stroke-width="0.8"/>
    <line x1="13" y1="165" x2="100" y2="215" stroke="#8EC4B4" stroke-width="0.8"/>
    <line x1="100" y1="215" x2="187" y2="165" stroke="#8EC4B4" stroke-width="0.8"/>

    <polygon points="100,15 187,65 100,115 13,65" fill="#1A2332"/>

    <circle cx="74" cy="52" r="9" fill="#1D9E75"/>
    <circle cx="74" cy="52" r="4.5" fill="#1A2332"/>

    <path d="M 82,52 L 119,52 Q 130,52 130,63 L 130,70"
          stroke="#1D9E75" stroke-width="6.5" stroke-linecap="round" stroke-linejoin="round" fill="none"/>

    <polygon points="124,45 113,51 122,59" fill="#1D9E75"/>
    <polygon points="110,67 121,61 112,53" fill="#1D9E75"/>

    <circle cx="130" cy="79" r="9" fill="#1D9E75"/>
  </g>
</svg>
